<?xml version="1.0" encoding="UTF-8" standalone="no"?>
<!-- Created with Inkscape (http://www.inkscape.org/) -->

<svg
   version="1.1"
   id="svg1"
   width="512"
   height="512"
   viewBox="0 0 512 512"
   xmlns="http://www.w3.org/2000/svg"
   xmlns:svg="http://www.w3.org/2000/svg">
  <defs
     id="defs1" />
  <g
     id="g1">
    <path
       style="fill:#2c508e;fill-opacity:1"
       d="m 53.730036,459.78537 c -1.61292,-1.06325 -3.50947,-2.97278 -4.21457,-4.24342 -0.70509,-1.27063 -1.29794,-4.04081 -1.31742,-6.15595 -0.0195,-2.11514 0.72046,-5.12534 1.64434,-6.68934 0.92388,-1.56401 3.06138,-3.5536 4.749996,-4.42133 l 3.07022,-1.57768 131.999998,-0.25788 132,-0.25788 10.28032,-2.25752 c 5.65417,-1.24164 13.52917,-3.41732 17.5,-4.83485 3.97082,-1.41753 10.80326,-4.42806 15.18319,-6.69008 4.37993,-2.26202 11.35493,-6.65473 15.5,-9.76159 4.14507,-3.10686 9.16132,-7.39423 11.14722,-9.52749 1.9859,-2.13326 5.51388,-6.33278 7.83996,-9.33226 2.32609,-2.99949 5.82753,-8.62449 7.78099,-12.5 1.95346,-3.87552 4.57495,-10.0509 5.82553,-13.72308 1.25058,-3.67218 2.82275,-10.07975 3.49371,-14.23904 0.74306,-4.60616 1.01659,-12.35526 0.69974,-19.82331 -0.40574,-9.56335 -1.1184,-14.1311 -3.23911,-20.76096 -1.49541,-4.675 -4.68605,-12.325 -7.09032,-17 -2.40426,-4.675 -6.88085,-11.65 -9.94796,-15.5 -3.06711,-3.85 -8.36582,-9.4413 -11.77491,-12.42512 -3.4091,-2.98381 -9.82421,-7.79319 -14.25581,-10.6875 -4.4316,-2.89431 -11.6316,-6.89586 -16,-8.89234 -4.3684,-1.99649 -11.76755,-4.74771 -16.44255,-6.11383 -4.675,-1.36612 -12.775,-3.13311 -18,-3.92664 -7.5578,-1.14781 -23.21848,-1.44398 -76.60212,-1.44867 l -67.10211,-0.006 -3.39789,-2.2826 c -2.13009,-1.43094 -3.92213,-3.78676 -4.80297,-6.31401 -0.77552,-2.2251 -1.1117,-5.20036 -0.75029,-6.64033 0.36014,-1.4349 1.79587,-3.965 3.19051,-5.62244 1.86067,-2.21128 3.97121,-3.31154 7.9279,-4.13295 3.78499,-0.78576 25.6073,-1.00082 73.21458,-0.72153 l 67.82239,0.39787 11.5,2.12125 c 6.325,1.16669 15.55,3.29046 20.5,4.7195 4.95,1.42903 14.50836,5.24301 21.24081,8.47551 6.73245,3.2325 16.18245,8.57781 21,11.87846 4.81755,3.30065 12.24075,9.2103 16.49599,13.13255 4.25524,3.92226 10.67473,11.03678 14.26552,15.81005 3.59079,4.77327 8.53203,12.54669 10.98052,17.27426 2.4485,4.72758 5.77798,12.60258 7.39883,17.5 1.62086,4.89743 3.66056,13.14621 4.53267,18.33063 0.87211,5.18441 1.58301,12.83441 1.57976,17 -0.003,4.16558 -0.65904,11.84878 -1.45733,17.07378 -0.79829,5.225 -2.5959,13.29268 -3.99469,17.92817 -1.39878,4.63549 -4.30252,12.06049 -6.45275,16.5 -2.15023,4.43951 -6.72844,12.03286 -10.17379,16.87411 -3.44536,4.84126 -10.213,12.56001 -15.03922,17.15278 -4.82621,4.59277 -12.56833,10.87453 -17.20472,13.95947 -4.63638,3.08495 -12.64669,7.57535 -17.80069,9.97867 -5.154,2.40333 -13.77246,5.77581 -19.15212,7.49441 -5.37967,1.7186 -15.27967,4.02186 -22,5.11836 l -12.21879,1.99364 -133.5,-0.006 -133.499998,-0.006 z M 199.1626,288.66302 c -4.675,-0.43441 -11.83681,-1.50611 -15.91513,-2.38155 -4.07831,-0.87545 -11.44763,-2.94274 -16.37625,-4.59398 -4.92861,-1.65124 -12.94399,-4.98133 -17.81195,-7.4002 -4.86795,-2.41887 -12.01817,-6.52301 -15.88938,-9.12031 -3.8712,-2.5973 -10.30956,-7.51333 -14.30745,-10.92452 -3.99789,-3.41119 -9.66901,-9.07455 -12.60248,-12.58526 -2.93348,-3.51071 -7.136358,-9.03779 -9.339738,-12.28241 -2.20337,-3.24461 -5.50758,-9.14897 -7.34268,-13.1208 -1.83509,-3.97183 -4.4576,-11.09008 -5.8278,-15.81833 -1.37019,-4.72825 -2.99519,-13.27734 -3.61111,-18.99796 -0.81875,-7.60449 -0.82484,-13.06369 -0.0226,-20.30356 0.60347,-5.44634 2.01605,-13.18882 3.13906,-17.20551 1.12301,-4.0167 3.41042,-10.5417 5.08314,-14.5 1.67272,-3.95831 5.20491,-10.79692 7.84931,-15.19692 2.6444,-4.4 7.701818,-11.3913 11.238708,-15.536233 3.53688,-4.14493 9.98698,-10.49813 14.33354,-14.11822 4.34656,-3.62009 10.82784,-8.47602 14.40284,-10.79095 3.575,-2.31494 10.18283,-5.97288 14.68407,-8.12876 4.50123,-2.15588 12.22304,-5.27297 17.15957,-6.92686 4.93653,-1.65389 13.4037,-4.01323 18.81593,-5.24298 l 9.84043,-2.2359 133,-0.31647 133,-0.31646 3.07022,1.61707 c 1.68862,0.88938 3.82612,2.8967 4.75,4.46071 0.92388,1.564 1.67978,4.48405 1.67978,6.489 0,2.00495 -0.68262,4.96541 -1.51693,6.57878 -0.83431,1.61338 -2.83696,3.61603 -4.45034,4.45034 l -2.93344,1.51693 H 340.43603 c -79.96231,0 -125.78306,0.36742 -131.29966,1.05285 -4.66058,0.57907 -11.68541,1.71177 -15.61074,2.51712 -3.92534,0.80534 -10.00034,2.38648 -13.5,3.51365 -3.49967,1.12717 -10.48495,4.03476 -15.52286,6.46132 -5.03791,2.42656 -12.74283,7.1118 -17.12206,10.41164 -4.37922,3.299843 -10.40036,8.633193 -13.3803,11.851893 -2.97995,3.2187 -7.12877,8.42944 -9.21961,11.57942 -2.09085,3.14999 -5.28065,8.96384 -7.08846,12.91968 -1.80781,3.95584 -4.06104,10.11743 -5.00718,13.69243 -0.94614,3.575 -1.9537,11.46577 -2.23902,17.53504 -0.374,7.9559 -0.0745,13.18334 1.07344,18.7341 0.87571,4.23448 2.88642,11.03209 4.46825,15.10581 1.58183,4.07371 5.06751,10.71837 7.74595,14.7659 2.67845,4.04753 8.25816,10.73415 12.39936,14.85915 4.1412,4.125 11.0263,9.89589 15.30023,12.8242 4.27392,2.92832 11.47758,7.03676 16.00814,9.12989 4.53056,2.09312 11.81064,4.80834 16.17797,6.03381 4.36732,1.22547 11.78866,2.85281 16.49185,3.61631 6.66778,1.08242 22.93022,1.38902 73.83339,1.39198 54.54741,0.003 65.84876,0.24057 68.7281,1.44363 1.89529,0.79191 4.35416,2.92941 5.46415,4.75 1.10998,1.8206 2.01815,4.88518 2.01815,6.81018 0,1.925 -0.90817,4.98958 -2.01815,6.81018 -1.10999,1.82059 -3.56886,3.95809 -5.46415,4.75 -2.8926,1.2086 -14.00985,1.41743 -69.2281,1.30039 -36.18017,-0.0767 -69.60712,-0.49486 -74.28212,-0.92926 z"
       id="path2" />
  </g>
</svg>
